<svg id="Layer_1" data-name="Layer 1" xmlns="http://www.w3.org/2000/svg" viewBox="0 0 382 283"><defs><style>.cls-1{fill:none;stroke:#191919;stroke-linecap:round;stroke-linejoin:round;stroke-width:12px;}</style></defs><title>camera</title><circle class="cls-1" cx="257.63" cy="270.25" r="105.25" transform="translate(-66.97 -118.42) rotate(-0.07)"/><circle class="cls-1" cx="257.62" cy="270.25" r="69.37" transform="translate(-66.97 -118.42) rotate(-0.07)"/><circle class="cls-1" cx="336.38" cy="98.25" r="16"/><path class="cls-1" d="M430.63,173.75h-61.5l-20-49h-183l-20,49H84.63a12,12,0,0,0-12,12v198a12,12,0,0,0,12,12h346a12,12,0,0,0,12-12v-198A12,12,0,0,0,430.63,173.75Z" transform="translate(-66.63 -118.75)"/><polyline class="cls-1" points="28.38 55 28.38 21.25 56.38 21.25 56.38 55.25"/></svg>